<?xml version="1.0" encoding="UTF-8"?>
<svg version="1.1" xmlns="http://www.w3.org/2000/svg" width="512" height="512">
<path d="M0 0 C168.96 0 337.92 0 512 0 C512 168.96 512 337.92 512 512 C343.04 512 174.08 512 0 512 C0 343.04 0 174.08 0 0 Z " fill="#494F5B" transform="translate(0,0)"/>
<path d="M0 0 C3.9905245 0.01830964 7.98062969 0.02050852 11.97119141 0.02026367 C53.16767021 0.07377558 53.16767021 0.07377558 60.86572266 5.20581055 C71.42256876 7.93490769 83.09442975 7.35836466 93.92431641 7.4519043 C95.9212953 7.47644573 97.9182741 7.50099822 99.91524601 7.52610111 C104.73663511 7.58552664 109.55810492 7.63653773 114.37963867 7.68261719 C129.48747919 7.83064188 144.55092345 8.16813753 159.63134766 9.1315918 C161.50547585 9.24923134 161.50547585 9.24923134 163.41746521 9.36924744 C201.07361018 11.95596328 230.42335166 24.34605133 256.55322266 52.01831055 C270.25834846 67.75199287 278.76955653 86.86780022 282.86572266 107.20581055 C283.05336182 108.12273682 283.24100098 109.03966309 283.43432617 109.984375 C285.07433814 119.09466684 285.13823035 128.06520126 285.0715332 137.28759766 C285.05337405 139.87176562 285.05102381 142.4555699 285.05126953 145.03979492 C285.03471022 153.36873178 284.88048008 161.68683352 284.47900391 170.0065918 C284.44888718 170.72384933 284.41877045 171.44110687 284.38774109 172.18009949 C283.98217489 179.5087622 282.15852694 186.62020198 278.86572266 193.20581055 C276.440918 194.18901381 274.04765267 195.06014319 271.56884766 195.88549805 C270.82423279 196.139534 270.07961792 196.39356995 269.31243896 196.65530396 C266.91582388 197.47074288 264.51580732 198.2756488 262.11572266 199.08081055 C260.54389147 199.61533028 258.97227425 200.15047963 257.40087891 200.6862793 C253.58781447 201.98263977 249.76795216 203.25704268 245.94308472 204.51812744 C244.05969602 205.14159824 242.18035353 205.77725908 240.30151367 206.41430664 C231.58833632 209.26708985 222.97493107 210.46537674 213.88330078 211.4519043 C204.01546227 212.71162836 194.95180526 215.67234676 187.86572266 222.95581055 C180.94040238 231.94687428 179.69241665 241.01706766 180.86572266 252.20581055 C182.48376163 259.14710201 186.23171625 264.54049111 190.47509766 270.17456055 C191.86572266 272.20581055 191.86572266 272.20581055 191.86572266 274.20581055 C176.50138456 279.00260073 161.02562748 281.54962892 144.99072266 282.83081055 C144.24043793 282.89340057 143.4901532 282.9559906 142.71713257 283.02047729 C121.95926727 284.6988112 101.09311218 284.68936629 80.27845669 284.81319714 C77.36922622 284.83155061 74.46007142 284.85663926 71.5508976 284.88232613 C69.51721864 284.89694215 67.48372112 284.90033115 65.44999695 284.90330505 C64.23020645 284.91362259 63.01041595 284.92394012 61.75366211 284.93457031 C60.68469193 284.93884537 59.61572174 284.94312042 58.51435852 284.94752502 C55.63667645 285.01810598 55.63667645 285.01810598 52.86572266 287.20581055 C52.60342686 289.95367131 52.53946314 292.46041511 52.61572266 295.20581055 C52.63175537 296.00999924 52.64778809 296.81418793 52.66430664 297.64274597 C53.10756054 317.98546036 54.1595842 338.2670863 55.59521484 358.56298828 C55.87014731 362.45596256 56.13785568 366.34938947 56.40478516 370.24291992 C56.5788479 372.74490205 56.75331156 375.24685633 56.92822266 377.7487793 C57.00741943 378.89976608 57.08661621 380.05075287 57.16821289 381.23661804 C57.4734303 385.51696793 57.79652131 389.73770339 58.42431641 393.984375 C58.86572266 397.20581055 58.86572266 397.20581055 58.86572266 405.20581055 C24.87572266 405.20581055 -9.11427734 405.20581055 -44.13427734 405.20581055 C-43.04001901 393.1689689 -43.04001901 393.1689689 -41.73193359 388.6159668 C-39.12060138 377.82341163 -38.52054258 366.6798446 -37.57177734 355.64331055 C-37.46411041 354.40012054 -37.35644348 353.15693054 -37.24551392 351.87606812 C-33.63701187 309.71323551 -32.95150922 267.72276311 -32.8897438 225.4291954 C-32.88437732 222.14204931 -32.87625823 218.85491886 -32.86776733 215.56777954 C-32.80829516 188.57402971 -33.36492764 161.70141782 -34.88569641 134.74963379 C-35.18362128 129.41119614 -35.42954089 124.07061095 -35.66696072 118.72918129 C-36.41993109 101.92285328 -37.86847139 85.19705878 -39.50927734 68.45581055 C-39.65799789 66.90567261 -39.65799789 66.90567261 -39.8097229 65.32421875 C-40.92133708 53.84444243 -42.30050706 42.44759023 -44.17333984 31.06518555 C-44.41895157 29.56402191 -44.41895157 29.56402191 -44.66952515 28.03253174 C-45.48835981 23.24910795 -46.48587324 18.78595816 -48.13427734 14.20581055 C-48.43505859 11.50268555 -48.43505859 11.50268555 -48.44677734 8.95581055 C-48.46353516 8.1050293 -48.48029297 7.25424805 -48.49755859 6.37768555 C-48.37767578 5.6609668 -48.25779297 4.94424805 -48.13427734 4.20581055 C-44.54984127 1.8161865 -41.50352031 1.51639134 -37.32958984 1.0925293 C-36.50669464 1.00823166 -35.68379944 0.92393402 -34.83596802 0.83708191 C-23.25159533 -0.20863744 -11.62068708 -0.05507774 0 0 Z " fill="#FEFEFE" transform="translate(133.13427734375,55.794189453125)"/>
<path d="M0 0 C0.69771893 0.00012777 1.39543785 0.00025555 2.11429977 0.00038719 C2.83057163 0.00117083 3.54684349 0.00195446 4.28482056 0.00276184 C5.81067008 -0.00114455 7.33651856 -0.00548303 8.86236572 -0.01022339 C12.03381909 -0.0176082 15.20516099 -0.01745125 18.37661743 -0.01213074 C21.58802271 -0.00749409 24.79904981 -0.01444736 28.01040649 -0.03263855 C84.35188559 -0.34895202 84.35188559 -0.34895202 103.17935181 17.54182434 C113.57718324 28.81087662 113.38730604 39.7505131 112.82388306 54.30354309 C111.37021355 72.68207893 102.2152415 89.82991411 88.82388306 102.30354309 C75.97391841 112.65535705 61.63820239 118.25353448 45.82388306 122.30354309 C44.70239868 122.59100403 43.58091431 122.87846497 42.42544556 123.17463684 C34.12617665 125.0414887 25.70571988 126.02872873 17.26138306 126.99104309 C16.18856079 127.1226886 15.11573853 127.25433411 14.01040649 127.38996887 C-0.13234633 128.88132075 -13.75621535 128.30354309 -28.17611694 128.30354309 C-28.17611694 86.72354309 -28.17611694 45.14354309 -28.17611694 2.30354309 C-18.56267626 1.10186301 -9.5960621 -0.01519858 0 0 Z " fill="#494F5B" transform="translate(213.17611694335938,138.6964569091797)"/>
<path d="M0 0 C2.66666667 2.66666667 5.33333333 5.33333333 8 8 C8.55429687 7.71125 9.10859375 7.4225 9.6796875 7.125 C10.40414062 6.75375 11.12859375 6.3825 11.875 6 C12.59429687 5.62875 13.31359375 5.2575 14.0546875 4.875 C16 4 16 4 18 4 C18.495 9.445 18.495 9.445 19 15 C22.63 15.66 26.26 16.32 30 17 C28.828125 19.97851562 28.828125 19.97851562 27.65625 22.95703125 C26.8470838 25.11841216 26.8470838 25.11841216 27 28 C28.5413408 29.38956597 28.5413408 29.38956597 30.5 30.5625 C32.46875 31.81640625 32.46875 31.81640625 34 33 C34 33.66 34 34.32 34 35 C32.46875 36.2890625 32.46875 36.2890625 30.5 37.625 C29.8503125 38.07101562 29.200625 38.51703125 28.53125 38.9765625 C28.0259375 39.31429687 27.520625 39.65203125 27 40 C27.67170806 43.8063457 28.72746564 47.35206816 30 51 C24.06 51.495 24.06 51.495 18 52 C18 55.63 18 59.26 18 63 C14.13571805 62.22714361 10.69743019 61.28980123 7 60 C5.02 62.64 3.04 65.28 1 68 C-1.64752004 65.42215154 -3.94432065 63.08351902 -6 60 C-6.886875 60.309375 -7.77375 60.61875 -8.6875 60.9375 C-12 62 -12 62 -17 63 C-17 59.37 -17 55.74 -17 52 C-18.5778125 52.0309375 -18.5778125 52.0309375 -20.1875 52.0625 C-23.32704904 52.01103198 -25.96883396 51.73482813 -29 51 C-28.690625 50.113125 -28.38125 49.22625 -28.0625 48.3125 C-27.1709329 45.53290845 -26.50622993 42.86863625 -26 40 C-28.31 38.35 -30.62 36.7 -33 35 C-31.54744301 31.17053157 -29.57104439 29.87949705 -26 28 C-26.74250597 23.91621717 -27.82923301 19.98060777 -29 16 C-23.555 15.505 -23.555 15.505 -18 15 C-17.67 11.37 -17.34 7.74 -17 4 C-15.35 4.66 -13.7 5.32 -12 6 C-10.00379834 6.67795528 -8.00461299 7.34733531 -6 8 C-4.02 5.36 -2.04 2.72 0 0 Z " fill="#FCFCFD" transform="translate(411,332)"/>
<path d="M0 0 C1.12776855 0.00362549 1.12776855 0.00362549 2.27832031 0.00732422 C8.77409968 0.2223511 13.00906108 1.93698459 17.6875 6.5625 C18.19539063 7.05363281 18.70328125 7.54476562 19.2265625 8.05078125 C24.86256455 14.16468991 26.39367072 20.32775076 26.16015625 28.4296875 C25.06810155 35.66793433 21.39257808 41.59385145 15.6875 46.125 C8.71149898 51.02273405 0.94656492 51.51318373 -7.3125 50.5625 C-15.19929266 47.9413701 -19.8438082 42.26553771 -24.3125 35.5625 C-26.07189873 28.80867907 -26.70469853 20.7149814 -23.75 14.25 C-18.28579612 4.98209235 -10.7747854 -0.03593192 0 0 Z " fill="#FDFDFD" transform="translate(249.3125,180.4375)"/>
</svg>
